<!--?xml version="1.0" standalone="no"?-->
              <svg id="sw-js-blob-svg" viewBox="0 0 100 100" xmlns="http://www.w3.org/2000/svg" version="1.1">
                    <defs> 
                        <linearGradient id="sw-gradient" x1="0" x2="1" y1="1" y2="0">
                            <stop id="stop1" stop-color="rgba(5.229, 82.529, 203.328, 1)" offset="0%"></stop>
                            <stop id="stop2" stop-color="rgba(74.416, 153.86, 201.051, 1)" offset="100%"></stop>
                        </linearGradient>
                    </defs>
                <path fill="url(#sw-gradient)" d="M19.9,-24.5C27,-17.8,34.6,-12.6,34.8,-6.8C35,-1,27.9,5.5,22.4,10.9C16.8,16.4,13,20.8,7.7,23.8C2.4,26.9,-4.3,28.6,-11.8,27.9C-19.3,27.1,-27.6,23.9,-30.8,18C-34,12.1,-32,3.4,-30.3,-5.2C-28.6,-13.7,-27,-22.1,-22,-29C-17,-36,-8.5,-41.6,-1,-40.4C6.4,-39.2,12.9,-31.1,19.9,-24.5Z" width="100%" height="100%" transform="translate(50 50)" stroke-width="0" style="transition: all 0.3s ease 0s;"></path>
              </svg>